REM DIRINDEX 1\2,1\3,1\4,1\5
REM DIRNAME "folder01","folder02","folder03","folder04","folder05"
TITLE ""
FILE "1Q_t_0989-1000.mp3" MP3
  TRACK 01 AUDIO
    TITLE "3:cjc172_3923"
    INDEX 01 00:00:00
  TRACK 02 AUDIO
    TITLE "0:"
    INDEX 01 00:01:12
  TRACK 03 AUDIO
    TITLE "4:cjc172_3924"
    INDEX 01 00:01:22
  TRACK 04 AUDIO
    TITLE "0:"
    INDEX 01 00:03:26
  TRACK 05 AUDIO
    TITLE "5:cjc172_3925"
    INDEX 01 00:03:34
  TRACK 06 AUDIO
    TITLE "0:"
    INDEX 01 00:08:39
  TRACK 07 AUDIO
    TITLE "3:cjc172_3926"
    INDEX 01 00:09:09
  TRACK 08 AUDIO
    TITLE "0:"
    INDEX 01 00:10:20
  TRACK 09 AUDIO
    TITLE "4:cjc172_3927"
    INDEX 01 00:10:28
  TRACK 10 AUDIO
    TITLE "0:"
    INDEX 01 00:12:41
  TRACK 11 AUDIO
    TITLE "5:cjc172_3928"
    INDEX 01 00:12:49
  TRACK 12 AUDIO
    TITLE "0:"
    INDEX 01 00:17:26
  TRACK 13 AUDIO
    TITLE "3:cjc172_3929"
    INDEX 01 00:17:71
  TRACK 14 AUDIO
    TITLE "0:"
    INDEX 01 00:18:71
  TRACK 15 AUDIO
    TITLE "4:cjc172_3930"
    INDEX 01 00:19:08
  TRACK 16 AUDIO
    TITLE "0:"
    INDEX 01 00:21:26
  TRACK 17 AUDIO
    TITLE "5:cjc172_3931"
    INDEX 01 00:21:34
  TRACK 18 AUDIO
    TITLE "0:"
    INDEX 01 00:25:38
  TRACK 19 AUDIO
    TITLE "3:cjc172_3932"
    INDEX 01 00:26:06
  TRACK 20 AUDIO
    TITLE "0:"
    INDEX 01 00:27:19
  TRACK 21 AUDIO
    TITLE "4:cjc172_3933"
    INDEX 01 00:27:31
  TRACK 22 AUDIO
    TITLE "0:"
    INDEX 01 00:28:52
  TRACK 23 AUDIO
    TITLE "5:cjc172_3934"
    INDEX 01 00:28:60
  TRACK 24 AUDIO
    TITLE "0:"
    INDEX 01 00:32:51
  TRACK 25 AUDIO
    TITLE "3:cjc172_3935"
    INDEX 01 00:33:23
  TRACK 26 AUDIO
    TITLE "0:"
    INDEX 01 00:34:48
  TRACK 27 AUDIO
    TITLE "4:cjc172_3936"
    INDEX 01 00:34:58
  TRACK 28 AUDIO
    TITLE "0:"
    INDEX 01 00:36:22
  TRACK 29 AUDIO
    TITLE "5:cjc172_3937"
    INDEX 01 00:36:28
  TRACK 30 AUDIO
    TITLE "0:"
    INDEX 01 00:40:25
  TRACK 31 AUDIO
    TITLE "3:cjc172_3938"
    INDEX 01 00:40:73
  TRACK 32 AUDIO
    TITLE "0:"
    INDEX 01 00:42:07
  TRACK 33 AUDIO
    TITLE "4:cjc172_3939"
    INDEX 01 00:42:15
  TRACK 34 AUDIO
    TITLE "0:"
    INDEX 01 00:43:28
  TRACK 35 AUDIO
    TITLE "5:cjc172_3940"
    INDEX 01 00:43:36
  TRACK 36 AUDIO
    TITLE "0:"
    INDEX 01 00:48:39
  TRACK 37 AUDIO
    TITLE "3:cjc172_3941"
    INDEX 01 00:49:09
  TRACK 38 AUDIO
    TITLE "0:"
    INDEX 01 00:50:26
  TRACK 39 AUDIO
    TITLE "4:cjc172_3942"
    INDEX 01 00:50:34
  TRACK 40 AUDIO
    TITLE "0:"
    INDEX 01 00:53:07
  TRACK 41 AUDIO
    TITLE "5:cjc172_3943"
    INDEX 01 00:53:12
  TRACK 42 AUDIO
    TITLE "0:"
    INDEX 01 00:57:46
  TRACK 43 AUDIO
    TITLE "3:cjc172_3944"
    INDEX 01 00:58:14
  TRACK 44 AUDIO
    TITLE "0:"
    INDEX 01 00:59:27
  TRACK 45 AUDIO
    TITLE "4:cjc172_3945"
    INDEX 01 00:59:37
  TRACK 46 AUDIO
    TITLE "0:"
    INDEX 01 01:00:56
  TRACK 47 AUDIO
    TITLE "5:cjc172_3946"
    INDEX 01 01:00:63
  TRACK 48 AUDIO
    TITLE "0:"
    INDEX 01 01:06:11
  TRACK 49 AUDIO
    TITLE "3:cjc172_3947"
    INDEX 01 01:06:56
  TRACK 50 AUDIO
    TITLE "0:"
    INDEX 01 01:07:73
  TRACK 51 AUDIO
    TITLE "4:cjc172_3948"
    INDEX 01 01:08:06
  TRACK 52 AUDIO
    TITLE "0:"
    INDEX 01 01:11:53
  TRACK 53 AUDIO
    TITLE "5:cjc172_3949"
    INDEX 01 01:11:61
  TRACK 54 AUDIO
    TITLE "0:"
    INDEX 01 01:16:29
  TRACK 55 AUDIO
    TITLE "3:cjc172_3950"
    INDEX 01 01:16:74
  TRACK 56 AUDIO
    TITLE "0:"
    INDEX 01 01:18:14
  TRACK 57 AUDIO
    TITLE "4:cjc172_3951"
    INDEX 01 01:18:22
  TRACK 58 AUDIO
    TITLE "0:"
    INDEX 01 01:19:49
  TRACK 59 AUDIO
    TITLE "5:cjc172_3952"
    INDEX 01 01:19:59
  TRACK 60 AUDIO
    TITLE "0:"
    INDEX 01 01:24:44
  TRACK 61 AUDIO
    TITLE "2:cjc172_3953"
    INDEX 01 01:25:16
  TRACK 62 AUDIO
    TITLE "0:"
    INDEX 01 01:26:20
  TRACK 63 AUDIO
    TITLE "3:cjc172_3954"
    INDEX 01 01:26:65
  TRACK 64 AUDIO
    TITLE "0:"
    INDEX 01 01:28:05
  TRACK 65 AUDIO
    TITLE "4:cjc172_3955"
    INDEX 01 01:28:17
  TRACK 66 AUDIO
    TITLE "0:"
    INDEX 01 01:30:59
  TRACK 67 AUDIO
    TITLE "5:cjc172_3956"
    INDEX 01 01:30:66
  TRACK 68 AUDIO
    TITLE "0:"
    INDEX 01 01:36:22
  TRACK 69 AUDIO
    TITLE "3:cjc172_3957"
    INDEX 01 01:36:67
  TRACK 70 AUDIO
    TITLE "0:"
    INDEX 01 01:37:74
  TRACK 71 AUDIO
    TITLE "4:cjc172_3958"
    INDEX 01 01:38:09
  TRACK 72 AUDIO
    TITLE "0:"
    INDEX 01 01:39:26
  TRACK 73 AUDIO
    TITLE "5:cjc172_3959"
    INDEX 01 01:39:34
  TRACK 74 AUDIO
    TITLE "0:"
    INDEX 01 01:43:34
